<?xml version="1.0" standalone="no"?>
<!DOCTYPE svg PUBLIC "-//W3C//DTD SVG 20010904//EN"
 "http://www.w3.org/TR/2001/REC-SVG-20010904/DTD/svg10.dtd">
<svg version="1.0" xmlns="http://www.w3.org/2000/svg"
 width="173.000000pt" height="73.000000pt" viewBox="0 0 289.000000 122.000000"
 preserveAspectRatio="xMidYMid meet">
<metadata>
Created by potrace 1.10, written by Peter Selinger 2001-2011
</metadata>
<g transform="translate(0.000000,122.000000) scale(0.100000,-0.100000)"
fill="#000000" stroke="none">
<path d="M415 1027 c-126 -42 -201 -138 -193 -248 2 -36 -1 -47 -21 -63 -31
-25 -61 -92 -61 -136 0 -77 58 -152 139 -179 19 -6 74 -11 122 -11 l88 0 3
-112 c2 -78 7 -113 16 -116 9 -3 12 24 12 112 l0 116 85 0 c95 0 143 15 188
58 42 40 57 75 57 132 0 57 -10 81 -48 123 -22 23 -26 38 -27 85 -2 136 -110
239 -259 248 -34 2 -79 -2 -101 -9z m189 -41 c46 -19 101 -70 120 -111 10 -20
17 -61 17 -99 1 -57 4 -67 25 -81 52 -34 71 -122 40 -183 -9 -18 -35 -44 -58
-60 -36 -24 -53 -27 -135 -30 l-93 -4 0 119 0 118 55 48 c49 43 70 77 46 77
-4 0 -29 -18 -55 -41 l-46 -41 0 77 c0 57 -3 76 -12 73 -9 -3 -14 -42 -16
-139 -1 -74 -6 -129 -10 -124 -26 35 -83 78 -92 69 -6 -6 9 -28 45 -64 54 -53
55 -55 55 -112 l0 -58 -85 0 c-94 0 -143 15 -187 57 -60 58 -60 138 0 205 33
37 36 45 37 102 0 104 70 189 178 217 41 10 129 3 171 -15z"/>
<path d="M670 666 c0 -41 -15 -55 -25 -23 -8 22 -8 22 -12 -3 -3 -14 -17 -38
-33 -55 -25 -27 -35 -54 -31 -92 1 -17 54 -43 85 -43 14 0 37 10 52 23 22 19
27 34 31 80 3 50 2 56 -13 50 -11 -4 -15 -3 -10 5 8 13 -16 76 -33 86 -7 5
-11 -5 -11 -28z m49 -132 c1 -12 -5 -27 -13 -33 -11 -10 -16 -8 -21 8 -3 12
-11 21 -16 21 -5 0 -4 -8 2 -19 7 -10 9 -26 6 -35 -7 -17 -42 -22 -51 -7 -8
13 4 42 15 35 5 -3 9 3 9 13 -1 15 -5 13 -25 -10 -20 -22 -26 -25 -31 -13 -3
8 -1 23 4 33 5 10 7 25 5 33 -4 13 -3 13 6 0 8 -12 11 -11 17 5 11 27 33 49
42 40 4 -4 1 -10 -5 -12 -15 -6 -17 -23 -3 -23 6 0 16 12 22 26 l12 26 12 -33
c7 -19 13 -44 13 -55z"/>
<path d="M1010 700 c0 -5 13 -7 30 -3 l30 6 2 -94 2 -94 5 90 6 90 28 -2 c15
-1 27 2 27 8 0 5 -29 9 -65 9 -36 0 -65 -4 -65 -10z"/>
<path d="M1182 613 c1 -54 3 -81 5 -60 6 51 40 52 67 2 11 -19 23 -35 28 -35
10 0 5 10 -23 51 -17 25 -17 26 2 42 23 20 25 60 3 81 -8 9 -31 16 -50 16
l-34 0 2 -97z m55 81 c50 -14 35 -84 -17 -84 -29 0 -30 2 -30 45 0 47 4 50 47
39z"/>
<path d="M1340 615 l0 -95 53 2 52 2 -47 3 -48 4 0 39 c0 37 1 39 38 43 l37 4
-37 1 c-38 2 -38 3 -38 43 l0 42 40 -7 c25 -4 40 -2 40 4 0 5 -20 10 -45 10
l-45 0 0 -95z"/>
<path d="M1470 615 l0 -95 53 2 c50 1 50 2 10 5 -43 4 -43 5 -43 43 0 37 1 39
38 43 l37 4 -37 1 c-38 2 -38 3 -38 43 l0 42 40 -7 c25 -4 40 -2 40 4 0 5 -22
10 -50 10 l-50 0 0 -95z"/>
<path d="M1625 685 c-33 -32 -35 -110 -5 -143 25 -27 81 -30 101 -5 13 15 12
15 -8 5 -55 -30 -103 2 -103 68 0 31 7 47 26 66 24 25 31 26 79 9 20 -7 20 -6
1 9 -28 23 -63 20 -91 -9z"/>
<path d="M1775 685 c-53 -52 -21 -165 46 -165 44 0 66 15 79 56 33 98 -58 177
-125 109z m95 -5 c14 -14 20 -33 20 -65 0 -52 -25 -85 -64 -85 -46 0 -73 47
-62 106 11 58 68 82 106 44z"/>
<path d="M1950 615 c0 -61 4 -95 11 -95 7 0 9 27 7 79 -2 44 0 77 3 75 3 -2
28 -37 55 -79 27 -41 52 -75 57 -75 4 0 6 44 5 98 l-2 97 -5 -85 -6 -84 -54
82 c-29 45 -57 82 -62 82 -5 0 -9 -43 -9 -95z"/>
<path d="M2152 613 l2 -98 5 85 6 84 54 -82 c29 -45 57 -82 62 -82 5 0 8 44 7
98 l-2 97 -5 -85 -6 -85 -55 82 c-30 46 -58 83 -62 83 -5 0 -7 -44 -6 -97z"/>
<path d="M2350 615 l0 -95 53 2 52 2 -47 3 -48 4 0 39 c0 37 1 39 38 43 l37 4
-38 1 c-38 2 -38 2 -35 40 3 37 3 37 46 35 23 -1 42 2 42 8 0 5 -22 9 -50 9
l-50 0 0 -95z"/>
<path d="M2500 690 c-57 -57 -26 -170 46 -170 29 0 54 10 54 21 0 6 -8 5 -19
-1 -29 -15 -56 -12 -75 9 -20 22 -24 88 -7 119 14 27 52 37 80 22 12 -6 21 -7
21 -1 0 26 -73 28 -100 1z"/>
<path d="M2620 701 c0 -6 12 -9 28 -8 l27 2 6 -90 5 -90 2 94 2 93 25 -4 c14
-3 28 -1 31 3 3 5 -24 9 -60 9 -36 0 -66 -4 -66 -9z"/>
</g>
</svg>
